<?xml version="1.0"?>
<svg xmlns="http://www.w3.org/2000/svg" x="0" y="0" width="20" height="60"  >
 <g>
  <g id="staff">
   <rect fill="#000000" height="1" width="44" y="16" x="-10"/>
   <rect fill="#000000" height="1" width="44" y="22" x="-10"/>
   <rect fill="#000000" height="1" width="44" y="28" x="-10"/>
   <rect fill="#000000" height="1" width="44" y="34" x="-10"/>
   <rect fill="#000000" height="1" width="44" y="40" x="-10"/>
  </g>
  <g id="auxiliary">
   <rect fill="#000000" height="1" width="10" y="52" x="5"/>
   <rect fill="#000000" height="1" width="10" y="46" x="5"/>
  </g>
  <g fill="#000000" id="note">
   <path d="m11.264999,52.570232c-1.548599,-0.000244 -3.013657,0.792358 -4.072632,1.884705c-0.768494,0.823547 -1.36235,1.964478 -1.145111,3.118896c0.162369,0.849304 0.885834,1.531921 1.73494,1.67334c1.317322,0.255859 2.688034,-0.172302 3.765961,-0.934937c1.06015,-0.704163 1.981995,-1.758179 2.224838,-3.037964c0.155258,-0.809631 -0.116425,-1.711609 -0.791992,-2.213745c-0.486725,-0.372925 -1.115417,-0.491089 -1.716003,-0.490295z"/>
  </g>
  <rect fill="#000000" height="20" width="1" y="34.555556" x="12.777778" id="stem"/>
 </g>
</svg>
