<?xml version="1.0" encoding="UTF-8" standalone="no"?> 
<svg xmlns="http://www.w3.org/2000/svg" viewBox="0 0 20 60">
<g id="staff" >
<rect x="-10" y="16" width="44" height="1" fill="#000000" />
<rect x="-10" y="22" width="44" height="1" fill="#000000" />
<rect x="-10" y="28" width="44" height="1" fill="#000000" />
<rect x="-10" y="34" width="44" height="1" fill="#000000" />
<rect x="-10" y="40" width="44" height="1" fill="#000000" />
</g>
<g id="auxiliary" >
<rect x="5" y="4" width="10" height="1" fill="#000000" />
<rect x="5" y="10" width="10" height="1" fill="#000000" />
</g>
<g id="note" fill="#000000" >
<path d="m11.35591,-2.19743c-1.5486,-0.00025 -3.01366,0.79236 -4.07263,1.8847c-0.7685,0.82355 -1.36235,1.96448 -1.14511,3.1189c0.16236,0.8493 0.88583,1.53192 1.73494,1.67334c1.31732,0.25586 2.68803,-0.1723 3.765961,-0.93494c1.060149,-0.70416 1.98199,-1.75818 2.22483,-3.03796c0.15526,-0.80963 -0.11642,-1.71161 -0.79199,-2.21375c-0.48672,-0.37292 -1.11541,-0.49109 -1.716,-0.49029z"/>
</g>
<rect id="stem" x="6.09091" y="2.45454" width="1" height="20" fill="#000000" />
</svg>
