<?xml version="1.0" encoding="UTF-8" standalone="no"?> 
<svg xmlns="http://www.w3.org/2000/svg" x="0" y="0" width="20" height="60"  >
<g id="staff" >
<rect x="-10" y="16" width="44" height="1" fill="#000000" />
<rect x="-10" y="22" width="44" height="1" fill="#000000" />
<rect x="-10" y="28" width="44" height="1" fill="#000000" />
<rect x="-10" y="34" width="44" height="1" fill="#000000" />
<rect x="-10" y="40" width="44" height="1" fill="#000000" />
</g>
<g id="auxiliary" >
<rect x="5" y="10" width="10" height="1" fill="#000000" />
</g>
<g id="note" fill="#000000" transform="translate(-170,-532)" >
<path d="M 181.26500,536.34802 C 179.71640,536.34776 178.25135,537.14037 177.19237,538.23274 C 176.42387,539.05628 175.83001,540.19719 176.04725,541.35163 C 176.20962,542.20095 176.93309,542.88353 177.78220,543.02495 C 179.09952,543.28080 180.47023,542.85267 181.54815,542.09005 C 182.60831,541.38586 183.53015,540.33185 183.77300,539.05209 C 183.92825,538.24242 183.65657,537.34045 182.98100,536.83829 C 182.49428,536.46538 181.86559,536.34722 181.26500,536.34802 z " />
</g>
<rect id="stem" x="6" y="9" width="1" height="20" fill="#000000" />
</svg>
