<?xml version="1.0" encoding="UTF-8" standalone="no"?> 
<svg xmlns="http://www.w3.org/2000/svg" viewBox="0 0 20 60">
<g id="staff" >
<rect x="-10" y="16" width="44" height="1" fill="#000000" />
<rect x="-10" y="22" width="44" height="1" fill="#000000" />
<rect x="-10" y="28" width="44" height="1" fill="#000000" />
<rect x="-10" y="34" width="44" height="1" fill="#000000" />
<rect x="-10" y="40" width="44" height="1" fill="#000000" />
</g>
<g id="auxiliary" >
<rect x="5" y="52" width="10" height="1" fill="#000000" />
<rect x="5" y="46" width="10" height="1" fill="#000000" />
</g>
<g id="note" fill="#000000" >
<path d="m11.264999,52.570232c-1.548599,-0.000244 -3.013657,0.792358 -4.072632,1.884705c-0.768494,0.823547 -1.36235,1.964478 -1.145111,3.118896c0.162369,0.849304 0.885834,1.531921 1.73494,1.67334c1.317322,0.255859 2.688034,-0.172302 3.765961,-0.934937c1.06015,-0.704163 1.981995,-1.758179 2.224838,-3.037964c0.155258,-0.809631 -0.116425,-1.711609 -0.791992,-2.213745c-0.486725,-0.372925 -1.115417,-0.491089 -1.716003,-0.490295z" />
</g>
<rect id="stem" x="12.777778" y="34.555556" width="1" height="20" fill="#000000" />
</svg>
